<svg width="75" height="75" viewBox="0 0 75 75" fill="none" xmlns="http://www.w3.org/2000/svg">
<path d="M38.4219 28C38.8385 28 39.2292 28.0651 39.5937 28.1953C39.9583 28.3255 40.2969 28.5469 40.6094 28.8594L54.9844 43.2344C55.5573 43.8073 55.8438 44.5365 55.8438 45.4219C55.8438 46.3073 55.5573 47.0365 54.9844 47.6094C54.4115 48.1823 53.6823 48.4688 52.7969 48.4688C51.9115 48.4688 51.1823 48.1823 50.6094 47.6094L38.4219 35.4219L26.2344 47.6094C25.6615 48.1823 24.9323 48.4688 24.0469 48.4688C23.1615 48.4688 22.4323 48.1823 21.8594 47.6094C21.2865 47.0365 21 46.3073 21 45.4219C21 44.5365 21.2865 43.8073 21.8594 43.2344L36.2344 28.8594C36.5469 28.5469 36.8854 28.3255 37.25 28.1953C37.6146 28.0651 38.0052 28 38.4219 28Z" fill="#332E1B"/>
</svg>
