<svg width="26" height="25" viewBox="0 0 26 25" fill="none" xmlns="http://www.w3.org/2000/svg">
<path d="M12.88 22.2135C12.6369 22.2135 12.3939 22.1701 12.1508 22.0833C11.9077 21.9965 11.6907 21.8663 11.4998 21.6927C10.3713 20.651 9.37302 19.6354 8.50496 18.6458C7.63691 17.6562 6.91208 16.697 6.33048 15.7682C5.74889 14.8394 5.30618 13.9453 5.00236 13.0859C4.69854 12.2265 4.54663 11.4062 4.54663 10.625C4.54663 8.02081 5.3843 5.94616 7.05965 4.40102C8.735 2.85588 10.6751 2.08331 12.88 2.08331C15.0848 2.08331 17.0249 2.85588 18.7003 4.40102C20.3756 5.94616 21.2133 8.02081 21.2133 10.625C21.2133 11.4062 21.0614 12.2265 20.7576 13.0859C20.4537 13.9453 20.011 14.8394 19.4294 15.7682C18.8478 16.697 18.123 17.6562 17.255 18.6458C16.3869 19.6354 15.3886 20.651 14.2602 21.6927C14.0692 21.8663 13.8522 21.9965 13.6091 22.0833C13.3661 22.1701 13.123 22.2135 12.88 22.2135ZM12.88 12.5C13.4529 12.5 13.9433 12.296 14.3513 11.888C14.7593 11.48 14.9633 10.9896 14.9633 10.4166C14.9633 9.84373 14.7593 9.35328 14.3513 8.94529C13.9433 8.53731 13.4529 8.33331 12.88 8.33331C12.307 8.33331 11.8166 8.53731 11.4086 8.94529C11.0006 9.35328 10.7966 9.84373 10.7966 10.4166C10.7966 10.9896 11.0006 11.48 11.4086 11.888C11.8166 12.296 12.307 12.5 12.88 12.5Z" fill="#332E1B"/>
</svg>
