<svg xmlns="http://www.w3.org/2000/svg" width="142" height="39" fill="none"><path fill="#fff" d="M55.569 31.36 49.361 14.4h4.864l3.968 11.487L62.001 14.4h4.896l-6.24 16.96zM73.321 12.095q-1.28 0-2.08-.8-.8-.831-.8-1.952 0-1.183.8-1.984.8-.832 2.08-.832 1.215 0 2.048.832.832.8.832 1.984 0 1.12-.832 1.952-.832.8-2.048.8M70.889 31.36V14.4h4.864v16.96zM88.102 14.08q1.632 0 2.688.543 1.056.513 1.6 1.12.575.609.704.832h.256V14.4h4.864v16.96H93.35v-2.176h-.256q-.128.225-.704.832-.544.609-1.6 1.152-1.056.512-2.688.512-1.889 0-3.296-.736a7.2 7.2 0 0 1-2.304-2.016 9.6 9.6 0 0 1-1.408-2.848 11.6 11.6 0 0 1-.448-3.2q0-1.631.448-3.2a9.2 9.2 0 0 1 1.408-2.816 6.74 6.74 0 0 1 2.304-2.016q1.407-.768 3.296-.768m1.408 3.935q-1.312 0-2.208.736-.864.705-1.312 1.824a6.6 6.6 0 0 0-.416 2.304q0 1.185.416 2.304a4.7 4.7 0 0 0 1.312 1.856q.895.704 2.208.704 1.311 0 2.176-.704a4.3 4.3 0 0 0 1.312-1.856 6.15 6.15 0 0 0 0-4.608 4.07 4.07 0 0 0-1.312-1.824q-.864-.735-2.176-.736M111.784 38.143q-2.368 0-3.904-.576-1.505-.575-2.4-1.472-.897-.864-1.312-1.728-.417-.864-.544-1.472l-.096-.576h4.736l.096.288q.127.32.48.704.351.416 1.024.704.704.32 1.856.32 1.983 0 2.912-1.12.96-1.12.96-2.944V28.48h-.224q-.321.513-.96 1.12-.64.609-1.632 1.024-.993.416-2.4.416-1.889 0-3.296-.704a7.3 7.3 0 0 1-2.368-1.952 8.9 8.9 0 0 1-1.408-2.72 10.8 10.8 0 0 1-.448-3.104q0-1.567.448-3.072a8.8 8.8 0 0 1 1.408-2.752 6.9 6.9 0 0 1 2.368-1.92q1.407-.736 3.296-.736 1.407 0 2.4.448.991.417 1.632 1.024.672.577.96 1.12h.224V14.4h4.864v15.872q0 2.112-.928 3.904t-2.848 2.88q-1.92 1.089-4.896 1.088M111.72 27.2q1.344 0 2.208-.672a4.14 4.14 0 0 0 1.344-1.728 5.8 5.8 0 0 0 .448-2.24q0-1.184-.448-2.24a4.14 4.14 0 0 0-1.344-1.728q-.864-.672-2.208-.672-1.312 0-2.208.672a4.24 4.24 0 0 0-1.312 1.728 5.7 5.7 0 0 0-.448 2.24q0 1.152.448 2.24a4.24 4.24 0 0 0 1.312 1.728q.895.672 2.208.672M133.331 31.68q-2.24 0-3.871-.737-1.632-.768-2.689-2.016a9.2 9.2 0 0 1-1.6-2.848 10.4 10.4 0 0 1-.511-3.232q0-1.6.479-3.136a9 9 0 0 1 1.536-2.848q1.056-1.28 2.656-2.016 1.632-.768 3.84-.768 2.337 0 4.128 1.024 1.825 1.024 2.848 3.04 1.024 1.985 1.024 4.832v1.184h-11.616q.096 1.537 1.056 2.656.993 1.12 2.72 1.12.993 0 1.601-.288.64-.32.991-.704.352-.415.481-.736l.127-.32h4.481l-.16.608q-.129.576-.577 1.44t-1.311 1.728q-.832.864-2.209 1.44-1.375.576-3.424.576m-3.776-10.465h6.944q-.096-1.76-1.056-2.624t-2.367-.864-2.401.928q-.991.897-1.12 2.56M24.119 37.506 12.75 33.522l-9.881 3.825a1.94 1.94 0 0 1-1.036.133 2.5 2.5 0 0 1-.93-.346 1.85 1.85 0 0 1-.664-.717A2.2 2.2 0 0 1 0 35.381V5.578q0-.69.398-1.222a2.4 2.4 0 0 1 1.09-.797l9.88-3.347q.32-.105.665-.159Q12.379 0 12.75 0q.372 0 .717.053.345.054.664.16L25.5 4.197 35.381.372q.532-.213 1.036-.133.505.08.93.345.425.266.664.718.24.45.239 1.035v29.804q0 .69-.398 1.221a2.4 2.4 0 0 1-1.09.797l-9.88 3.347a4 4 0 0 1-.665.16q-.346.053-.717.053-.372 0-.717-.053a4 4 0 0 1-.664-.16m-.744-4.728V7.916l-8.5-2.975v24.862z"/></svg>